# xmcd
#
# Track frame offsets: 
#        150
#        18958
#        38081
#        55018
#        78282
#        105476
#        118441
#        136871
#        156977
#        182533
#
# Disc length: 2574 seconds
#
# Revision: 0
# Processed by: cddbd v1.5.2PL0 Copyright (c) Steve Scherf et al.
# Submitted via: ExactAudioCopy v0.99pb5
#
DISCID=760a0c0a
DTITLE=Eeppi Ursin - Yellow Page Girl
DYEAR=2009
DGENRE=Pop
TTITLE0=Yellow Page Girl
TTITLE1=Have You Ever
TTITLE2=Take a Look
TTITLE3=Say Goodbye
TTITLE4=Right Now
TTITLE5=Purple Mind
TTITLE6=Got to Run
TTITLE7=Chasing a Vision
TTITLE8=Past and Gone
TTITLE9=Tuuli
EXTD=
EXTT0=
EXTT1=
EXTT2=
EXTT3=
EXTT4=
EXTT5=
EXTT6=
EXTT7=
EXTT8=
EXTT9=
PLAYORDER=
